<?xml version="1.0" encoding="UTF-8"?>
<svg width="202px" height="32px" viewBox="0 0 202 32" version="1.1" xmlns="http://www.w3.org/2000/svg" xmlns:xlink="http://www.w3.org/1999/xlink">
    <!-- Generator: Sketch 52 (66869) - http://www.bohemiancoding.com/sketch -->
    <title>分组</title>
    <desc>Created with Sketch.</desc>
    <g id="Page-1" stroke="none" stroke-width="1" fill="none" fill-rule="evenodd">
        <g id="分组">
            <polygon id="Fill-1" fill="#FFFFFF" points="63.0795357 24.1020486 60.0103588 24.1050081 59.9958346 8.96308902 54.4546899 22.3093087 51.2224988 22.3120832 45.6555546 9.12068439 45.6700787 24.1179561 42.6010929 24.1209156 42.5831289 5.71925087 47.295443 5.71499653 52.8354411 18.8538636 58.3494486 5.70482312 63.0617627 5.70056879"></polygon>
            <g transform="translate(0.000000, 0.078798)">
                <path d="M69.1816939,17.7219514 C69.183796,19.9301364 70.6660212,21.7556162 73.1102785,21.7533965 C75.4595557,21.7511769 77.03313,20.0148532 77.0308367,17.7147376 C77.0287345,15.414437 75.4517203,13.6808879 73.1024431,13.6831075 C70.6581858,13.6853272 69.1794006,15.5137665 69.1816939,17.7219514 Z M79.698498,24.0081942 L76.8603693,24.0107838 L76.8590316,22.4992 C75.9635046,23.6171653 74.6200231,24.3413272 72.7729748,24.3431769 C69.133726,24.3463214 66.2657847,21.5756393 66.2621536,17.724541 C66.2583315,13.8732578 69.1209219,11.0973965 72.7601707,11.0940671 C74.6072189,11.0922173 75.9522293,11.8271075 76.8496674,12.9435931 L76.8481385,11.4190613 L79.6864583,11.4164717 L79.698498,24.0081942 Z" id="Fill-2" fill="#FFFFFF"></path>
                <path d="M92.3168284,14.5593896 C91.5287035,14.0869734 89.9121302,13.4837827 88.2963213,13.4850775 C86.7481642,13.4865572 85.8390687,14.0923376 85.8398331,14.9861179 C85.8405975,15.8665803 86.7913544,16.1155514 87.9867281,16.2853549 L89.3311652,16.4812393 C92.169485,16.8730081 93.8546657,18.0411006 93.8569589,20.1967538 C93.8590611,22.6152509 91.6880867,24.3127306 87.940098,24.3160601 C86.5956609,24.3173549 84.2597612,24.0698636 82.357292,22.7044069 L83.6724897,20.6397595 C84.6102513,21.3356208 85.846713,21.9258636 87.965133,21.9238289 C89.9067792,21.9221642 90.9248057,21.3298867 90.9238501,20.3832046 C90.9230857,19.6734705 90.2165635,19.2012393 88.6682153,18.992037 L87.3102096,18.8224185 C84.4308019,18.4439676 82.8948757,17.1574936 82.8927735,15.1333549 C82.8904802,12.6360601 84.9532882,11.0959908 88.2668908,11.0930312 C90.3035171,11.0911815 92.1918445,11.5758058 93.537046,12.4157595 L92.3168284,14.5593896 Z" id="Fill-4" fill="#FFFFFF"></path>
                <path d="M105.378928,13.8903121 L100.395051,13.8947514 L100.400211,19.3756301 C100.401931,21.0712601 101.326124,21.7277225 102.466841,21.7266127 C103.349564,21.7258728 104.313316,21.3439075 105.086917,20.8700116 L106.216167,23.0639538 C105.171004,23.7483468 103.854277,24.3147283 102.224709,24.3162081 C99.2778401,24.3189827 97.5517625,22.7827977 97.5485137,19.4309364 L97.5431627,13.897526 L94.9494598,13.8999306 L94.9469754,11.4026358 L97.5406783,11.4002312 L97.5370473,7.58853179 L100.388936,7.58575723 L100.392567,11.3974566 L105.376444,11.3930173 L105.378928,13.8903121 Z" id="Fill-6" fill="#FFFFFF"></path>
                <path d="M110.200632,16.6067052 L116.949954,16.6006012 C116.635775,14.6424971 115.453205,13.5001156 113.647054,13.5017803 C111.623614,13.5036301 110.497803,14.7662428 110.200632,16.6067052 M119.857264,17.6627052 C119.857455,18.0174798 119.8307,18.3724393 119.803945,18.687815 L110.189165,18.6965087 C110.57157,20.9570405 112.215854,21.9018728 114.062711,21.9002081 C115.366251,21.8989133 116.750821,21.3981965 117.823122,20.569341 L119.237313,22.5265202 C117.649788,23.8422197 115.857587,24.3039075 113.888422,24.3055723 C109.990796,24.3092717 107.231786,21.6828671 107.227964,17.6873064 C107.224142,13.7440925 109.869444,11.0603468 113.699035,11.0566474 C117.338475,11.0535029 119.839682,13.7326243 119.857264,17.6627052" id="Fill-8" fill="#FFFFFF"></path>
                <path d="M131.460339,11.3955514 L130.784011,14.1170312 C130.186229,13.8151584 129.316884,13.6583029 128.624312,13.6588578 C126.818161,13.6605225 125.529527,14.8974243 125.531629,17.0399445 L125.538318,23.9665572 L122.699998,23.9691468 L122.687958,11.3772393 L125.49895,11.3748347 L125.500288,12.7943029 C126.354535,11.5975399 127.68464,11.0441064 129.273693,11.0426266 C130.142657,11.0418867 130.808282,11.1463954 131.460339,11.3955514" id="Fill-10" fill="#FFFFFF"></path>
                <path d="M150.455142,9.14373179 L149.613698,9.69642543 C148.240213,7.62104971 145.699447,6.33513064 142.861509,6.33772023 C138.081161,6.34234451 134.281956,9.72380116 134.286925,14.7579746 C134.291893,19.791778 138.097405,23.1665757 142.877753,23.1619514 C145.715691,23.1593618 148.240404,21.8821364 149.623445,19.8041711 L150.452467,20.3818358 C148.906603,22.6702983 146.069812,24.0921711 142.878518,24.0951306 C137.460064,24.1001249 133.23297,20.3054428 133.227619,14.7587145 C133.222268,9.21198613 137.441908,5.40972023 142.860554,5.40454104 C146.065225,5.40176647 148.959157,6.83177803 150.455142,9.14373179" id="Fill-12" fill="#FFFFFF"></path>
                <polygon id="Fill-14" fill="#FFFFFF" points="155.029955 23.9396254 154.079198 23.9405503 154.061043 5.01319769 155.011609 5.01227283"></polygon>
                <path d="M159.42335,17.8106451 C159.426407,20.9126104 161.791546,23.2105064 164.914616,23.2077318 C168.051635,23.2049572 170.439707,20.902622 170.43665,17.8006566 C170.433401,14.6855584 168.041125,12.3876624 164.904105,12.390252 C161.780844,12.3932116 159.420101,14.6955468 159.42335,17.8106451 M171.400784,17.7997318 C171.404033,21.3748532 168.609094,24.0719168 164.91538,24.0750613 C161.248994,24.0785757 158.462655,21.3865064 158.459215,17.8115699 C158.455775,14.2231306 161.236763,11.5260671 164.90334,11.5227376 C168.597054,11.5194081 171.397153,14.2114775 171.400784,17.7997318" id="Fill-16" fill="#FFFFFF"></path>
                <path d="M185.848925,18.9036763 C185.852174,22.1765549 183.450342,24.0582659 180.259239,24.0612254 C177.067945,24.064 174.675859,22.1867283 174.672802,18.9138497 L174.665731,11.6585434 L175.602919,11.6578035 L175.609799,18.8343121 C175.612474,21.5815029 177.501566,23.1963006 180.258474,23.193711 C183.028569,23.1913064 184.901034,21.5729942 184.898359,18.8258035 L184.891479,11.6492948 L185.842045,11.6483699 L185.848925,18.9036763 Z" id="Fill-18" fill="#FFFFFF"></path>
                <path d="M190.083319,17.7828254 C190.086185,20.832074 192.39705,23.1826867 195.54783,23.1799121 C198.684849,23.1769526 201.004505,20.8483514 201.001638,17.772837 C200.998581,14.6840046 198.674147,12.3596578 195.537128,12.3624324 C192.372779,12.3653919 190.080261,14.720259 190.083319,17.7828254 M200.944115,14.5130913 L200.934751,4.97043237 L201.871748,4.96969249 L201.889903,23.8970451 L200.953097,23.8979699 L200.950422,21.0323977 C199.906405,22.8342012 197.965714,24.045022 195.548594,24.0472416 C191.908963,24.0505711 189.122624,21.3851376 189.119184,17.7837503 C189.115744,14.182178 191.896732,11.4980624 195.536363,11.4949179 C197.953674,11.4926983 199.896658,12.7001896 200.944115,14.5130913" id="Fill-20" fill="#FFFFFF"></path>
                <polygon id="Fill-22" fill="#36CFC9" points="2.0003351 22.7699977 2.0003351 9.15113064 4.4465035 7.78419422 6.44395289 6.66789364 14.1858848 2.3417896 21.9750201 6.69452948 23.9762916 7.81286474 25.9781364 6.69582428 23.977056 5.57767399 14.1858848 0.106228902 4.449179 5.54715376 2.45153851 6.66326936 1.91106906e-05 8.03335029 1.91106906e-05 23.887778 14.1858848 31.8148994 24.2042821 26.2165642 24.2042821 23.9810035 14.1858848 29.5793387"></polygon>
                <polyline id="Fill-24" fill="#FFFFFF" points="26.2712944 25.1834821 28.3050541 24.0470197 28.3050541 10.4899329 28.3050541 10.4838289 28.3050541 8.22958613 28.1980342 8.29229133 26.2892585 9.35716994 26.1961894 9.40914682 24.2874136 10.4742104 24.3078621 10.4854936 14.1447968 16.1559676 3.93395478 10.4185341 3.93395478 12.9759445 14.1413569 18.7113434 26.304547 11.9245688"></polyline>
            </g>
        </g>
    </g>
</svg>