<?xml version="1.0" encoding="UTF-8"?>
<svg width="208px" height="137px" viewBox="0 0 208 137" version="1.1" xmlns="http://www.w3.org/2000/svg" xmlns:xlink="http://www.w3.org/1999/xlink">
    <!-- Generator: Sketch 52 (66869) - http://www.bohemiancoding.com/sketch -->
    <title>logo_plan2</title>
    <desc>Created with Sketch.</desc>
    <defs>
        <polygon id="path-1" points="0.225190801 0.0921431869 17.7280312 0.0921431869 17.7280312 17.8302748 0.225190801 17.8302748"></polygon>
    </defs>
    <g id="Page-1" stroke="none" stroke-width="1" fill="none" fill-rule="evenodd">
        <g id="登录页_plan2" transform="translate(-856.000000, -100.000000)">
            <g id="分组-6" transform="translate(840.000000, 100.000000)">
                <g id="logo_plan2" transform="translate(13.000000, 0.000000)">
                    <g id="分组" transform="translate(3.000000, 0.000000)">
                        <polygon id="Fill-1" fill="#FFFFFF" points="19.9998135 111.005774 13.0049697 128.851584 5.97739881 111.019581 0 111.025355 0.0225452443 136 3.91584228 135.995983 3.89717578 115.641763 10.9591705 133.545062 15.0590111 133.541296 22.0882789 115.428127 22.106703 135.97841 26 135.974394 25.9774548 111"></polygon>
                        <g transform="translate(31.000000, 0.000000)">
                            <g transform="translate(0.000000, 118.373214)">
                                <mask id="mask-2" fill="white">
                                    <use xlink:href="#path-1"></use>
                                </mask>
                                <g id="Clip-3"></g>
                                <path d="M4.0283308,8.9656813 C4.0310692,11.9220399 5.96188776,14.3660258 9.1458962,14.3630541 C12.2061789,14.3600824 14.2559932,12.0354603 14.2530059,8.95602323 C14.2502675,5.87633854 12.1959722,3.5554311 9.13568945,3.55840281 C5.95168101,3.56137452 4.02534346,6.00932267 4.0283308,8.9656813 Z M17.7280312,17.3818187 L14.0309468,17.3852857 L14.0292042,15.3615495 C12.8626473,16.858302 11.1125629,17.8278232 8.70650802,17.8302996 C3.96584557,17.8345095 0.229925738,14.1250694 0.225195781,8.96914829 C0.220216878,3.81297951 3.94916624,0.0966054197 8.68982869,0.092147851 C11.0958835,0.0896714239 12.8479595,1.0735559 14.0170059,2.56832727 L14.0150143,0.527256086 L17.7123477,0.523789088 L17.7280312,17.3818187 Z" id="Fill-2" fill="#FFFFFF" mask="url(#mask-2)"></path>
                            </g>
                            <path d="M34.1652819,123.104774 C33.1386321,122.472295 31.0328051,121.664732 28.9279738,121.666465 C26.9112692,121.668446 25.7270371,122.479476 25.7280329,123.676086 C25.7290287,124.854865 26.9675308,125.188192 28.5246827,125.415528 L30.2760118,125.677782 C33.9733451,126.202289 36.1685435,127.766153 36.1715308,130.652181 C36.1742692,133.890109 33.3462523,136.162726 28.4639401,136.167184 C26.712611,136.168917 23.6697544,135.837572 21.1915055,134.009473 L22.904746,131.245285 C24.1263198,132.176917 25.7369949,132.967145 28.4965519,132.964421 C31.0258346,132.962192 32.3519654,132.16924 32.3507207,130.901805 C32.3497249,129.9516 31.4293747,129.319368 29.4124211,129.039284 L27.6434169,128.812196 C23.8925603,128.305519 21.8917882,126.583164 21.8890498,123.873209 C21.8860624,120.529785 24.5731764,118.467912 28.8896363,118.46395 C31.5426447,118.461473 34.0024717,119.110297 35.7547966,120.234843 L34.1652819,123.104774 Z" id="Fill-4" fill="#FFFFFF"></path>
                            <path d="M51.1805831,122.209001 L44.6883426,122.214944 L44.6950641,129.552845 C44.6973046,131.822986 45.9012034,132.70187 47.387157,132.700384 C48.5370346,132.699394 49.792465,132.188011 50.8001949,131.553551 L52.2712118,134.490841 C50.9097308,135.407119 49.1944987,136.165401 47.0717435,136.167382 C43.2330093,136.171097 40.9845367,134.114424 40.9803046,129.626891 L40.9733342,122.218659 L37.5946506,122.221878 L37.5914143,118.878454 L40.9700979,118.875235 L40.9653679,113.772062 L44.6803764,113.768347 L44.6851063,118.87152 L51.1773468,118.865577 L51.1805831,122.209001 Z" id="Fill-6" fill="#FFFFFF"></path>
                            <path d="M57.4615937,125.845783 L66.2535895,125.83761 C65.8443236,123.216065 64.3038511,121.686623 61.9510705,121.688852 C59.3152392,121.691329 57.8487034,123.381738 57.4615937,125.845783 M70.040792,127.259575 C70.0410409,127.734554 70.0061886,128.20978 69.9713363,128.632011 L57.446657,128.64365 C57.9447962,131.670091 60.0867203,132.93505 62.4925262,132.932822 C64.190581,132.931088 65.9941886,132.260719 67.3910198,131.151032 L69.2332139,133.77134 C67.1652266,135.532822 64.830619,136.150939 62.2654882,136.153167 C57.1882519,136.15812 53.5942308,132.641841 53.5892519,127.292511 C53.584273,122.013264 57.0301717,118.420216 62.0187835,118.415263 C66.7596949,118.411053 70.017889,121.99791 70.040792,127.259575" id="Fill-8" fill="#FFFFFF"></path>
                            <path d="M85.1555215,118.868969 L84.2745046,122.512537 C83.4958042,122.108384 82.3633527,121.898383 81.4611755,121.899126 C79.1083949,121.901354 77.4297578,123.557341 77.4324962,126.425787 L77.4412093,135.699263 L73.7438759,135.70273 L73.7281924,118.844453 L77.3899266,118.841233 L77.3916692,120.741644 C78.504454,119.139395 80.2371122,118.398448 82.3070911,118.396467 C83.4390447,118.395477 84.3061207,118.535395 85.1555215,118.868969" id="Fill-10" fill="#FFFFFF"></path>
                            <path d="M109.8992,115.854217 L108.803095,116.594173 C107.013926,113.815622 103.7042,112.09401 100.007116,112.097477 C93.7800021,112.10342 88.8312215,116.630824 88.8376941,123.370668 C88.8439177,130.110017 93.8011624,134.628258 100.028276,134.622067 C103.725361,134.6186 107.014175,132.908627 108.815791,130.126609 L109.895715,130.899997 C107.881998,133.963833 104.186656,135.867462 100.029521,135.871424 C92.9709304,135.878111 87.4645127,130.797721 87.4577911,123.371659 C87.4508207,115.945597 92.9475295,110.855053 100.005871,110.848119 C104.180681,110.844405 107.950458,112.758931 109.8992,115.854217" id="Fill-12" fill="#FFFFFF"></path>
                            <polygon id="Fill-14" fill="#FFFFFF" points="115.858549 135.663206 114.620047 135.664444 114.596397 110.324157 115.83465 110.322919"></polygon>
                            <path d="M121.581624,127.45764 C121.585607,131.610608 124.666552,134.687073 128.734814,134.683358 C132.821248,134.679644 135.932067,131.597235 135.928084,127.444267 C135.923851,123.273716 132.807556,120.197251 128.721122,120.200718 C124.652611,120.20468 121.577392,123.287089 121.581624,127.45764 M137.184012,127.443029 C137.188244,132.229467 133.547421,135.840345 128.735809,135.844555 C123.959797,135.84926 120.330176,132.245068 120.325695,127.458878 C120.321214,122.654609 123.943864,119.043731 128.720126,119.039273 C133.531738,119.034816 137.179282,122.639008 137.184012,127.443029" id="Fill-16" fill="#FFFFFF"></path>
                            <path d="M156.004862,128.92101 C156.009095,133.3028 152.880352,135.822069 148.723466,135.826031 C144.566331,135.829746 141.450284,133.31642 141.446301,128.93463 L141.43709,119.221093 L142.657917,119.220102 L142.666879,128.828144 C142.670365,132.506133 145.131187,134.668054 148.72247,134.664587 C152.33093,134.661368 154.770095,132.494742 154.766609,128.816752 L154.757647,119.20871 L155.9959,119.207472 L156.004862,128.92101 Z" id="Fill-18" fill="#FFFFFF"></path>
                            <path d="M161.52079,127.420394 C161.524524,131.502784 164.534769,134.649828 168.639127,134.646113 C172.725562,134.642151 175.747258,131.524577 175.743524,127.407021 C175.739541,123.271636 172.711621,120.159758 168.625186,120.163472 C164.503153,120.167434 161.516807,123.320174 161.52079,127.420394 M175.668592,123.042814 L175.656393,110.266927 L176.876971,110.265936 L176.900621,135.606224 L175.680292,135.607462 L175.676807,131.770981 C174.316819,134.183269 171.788781,135.804338 168.640123,135.80731 C163.898963,135.811767 160.269343,132.243236 160.264862,127.421632 C160.260381,122.599781 163.88303,119.006238 168.624191,119.002028 C171.773098,118.999056 174.304123,120.615668 175.668592,123.042814" id="Fill-20" fill="#FFFFFF"></path>
                            <polygon id="Fill-22" fill="#FFFFFF" points="38.718638 65.4286888 38.718638 26.2563179 45.5643806 22.3247423 51.1549418 19.1140546 72.8211359 6.67050393 94.6205156 19.1903286 100.221035 22.4067121 105.823545 19.1940432 100.223026 15.9776598 72.8211359 0.239965782 45.5720979 15.8897466 39.9815367 19.1006819 33.1203595 23.0411727 33.1203595 68.6438341 72.8211359 91.4455362 100.859081 75.3423216 100.859081 68.9117835 72.8211359 85.0149981"></polygon>
                            <polyline id="Fill-24" fill="#FFFFFF" points="106.643944 72.3709063 112.335577 69.1022702 112.335577 30.1072115 112.335577 30.0896289 112.335577 23.6058476 112.036345 23.7856362 106.694231 26.8492241 106.433834 26.998305 101.091969 30.0616453 101.148729 30.0943341 72.7064966 46.404578 44.1303321 29.9019157 44.1303321 37.257647 72.6965388 53.7546135 106.737298 34.2339296"></polyline>
                        </g>
                    </g>
                </g>
            </g>
        </g>
    </g>
</svg>